<svg viewBox="0 0 50 50" xmlns="http://www.w3.org/2000/svg">
 <path d="m25.004 1.2206c-0.46056 0-23.783 23.315-23.783 23.776 0 0.19377 5.2701 5.624 11.711 12.067 6.4414 6.4435 11.87 11.716 12.064 11.716 0.46055 0 23.783-23.315 23.783-23.775 0-0.46055-23.315-23.784-23.775-23.784zm-0.0036 3.4318c0.28948 0.01275 11.097 17.417 11.097 17.871 0 0.07738-2.4373 1.4194-5.4162 2.9822-2.9789 1.5628-5.5551 2.8375-5.7247 2.8324-0.52772-0.0158-11.054-5.6621-11.029-5.9159 0.06035-0.60903 10.763-17.783 11.073-17.769zm-1.6474 0.44339c0.06556 0-0.19322 0.51544-0.57568 1.1451s-2.7072 4.4733-5.1656 8.5416c-2.4584 4.0683-4.5218 7.4492-4.5852 7.5127-0.06353 0.06354-1.834 0.50698-3.9346 0.98547-2.1007 0.4785-4.1368 0.95746-4.5243 1.0645-0.38752 0.10708 3.6538-4.1799 8.9808-9.5271 5.327-5.3471 9.739-9.7224 9.8046-9.7224zm3.3135 0.17105c0.17359 0.07523 4.3756 4.1779 9.5617 9.3384 5.3533 5.327 9.7333 9.7264 9.7333 9.7761 0 0.26355-8.8582-1.927-9.1467-2.2619-0.25974-0.30152-9.8573-16.228-10.152-16.848-3e-3 -0.0061-0.0019-0.0076 0.0041-0.0052zm10.148 17.822 9.5322 2.2262-10.319 10.323c-5.6754 5.6778-10.413 10.323-10.528 10.323-0.11503 0-0.22718-3.7265-0.24908-8.2817-0.03932-8.1716-0.02951-8.2886 0.73535-8.77 0.42635-0.26835 3.0371-1.6878 5.8017-3.1543zm-23.627 0.0072 5.5537 2.9549 5.5542 2.9554 0.17622 8.478c0.0971 4.6629 0.09655 8.4777-0.0016 8.4775-0.0981-2.1e-4 -4.8529-4.6768-10.566-10.393-5.7134-5.7158-10.231-10.394-10.038-10.397 0.19252-0.0024 2.3686-0.47039 4.8359-1.0402z" fill="#000000" stroke-width=".35228"/>
</svg>
