<svg viewBox="0 0 50 50" xmlns="http://www.w3.org/2000/svg">
 <path d="m25.141 2.238-6.4115 2.0412c-3.5265 1.1226-6.5982 2.1386-6.8259 2.2577-0.22773 0.11917-2.2487 2.7528-4.4912 5.8529l-4.0773 5.6369-5.29e-4 7.0507v7.0512l8.2786 11.369 6.3412 2.1156c3.4876 1.1636 6.5604 2.1306 6.8285 2.1487 0.26811 0.0182 3.462-0.91975 7.0972-2.0841l6.6094-2.1172 8.1762-11.248v-14.518l-4.0793-5.6043-4.0793-5.6038-6.6828-2.1745zm0.36225 1.9074 1.51 0.49609c0.83037 0.27281 3.5196 1.1419 5.9764 1.9311l4.4669 1.4351 3.7073 5.087c2.0388 2.798 3.5952 5.1541 3.4592 5.2359-0.13602 0.08176-1.4169 0.49543-2.8463 0.91932-1.4295 0.42389-2.7767 0.82372-2.9941 0.88832-0.21748 0.0646-3.2494-1.9895-6.7371-4.5646l-6.3407-4.6819-0.10077-3.3729zm-1.0459 0.06098c0.29959 0.03119 0.36638 0.74026 0.36638 3.1424v3.313l-6.658 4.8271c-3.662 2.6551-6.7137 4.8154-6.7815 4.8002-1.6151-0.36155-5.7356-2.1081-5.6694-2.403 0.04987-0.22205 1.6351-2.5307 3.5228-5.1304l3.4324-4.7263 5.5676-1.8014c3.0621-0.9906 5.7964-1.8887 6.0766-1.9963 0.05274-0.02021 0.10035-0.02982 0.14314-0.025321zm0.68213 7.2461 6.2198 4.4984c3.421 2.4742 6.2932 4.6892 6.3826 4.9222 0.08939 0.23294-0.90912 3.7699-2.219 7.86l-2.3818 7.4362h-8.0445c-6.1162 0-8.0832-0.10549-8.2042-0.44028-1.625-4.4994-4.731-14.863-4.5139-15.062 0.4166-0.38197 10.749-7.897 11.845-8.615zm-20.044 7.505 3.143 1.0537 3.1424 1.0542 2.3466 7.245c1.2904 3.9848 2.4147 7.4242 2.4986 7.6429 0.08393 0.21873-0.6452 1.506-1.6201 2.8608-0.97484 1.3548-1.9048 2.5085-2.0671 2.5637-0.16221 0.0552-1.9032-2.106-3.869-4.8028l-3.5745-4.9031v-6.3572zm39.854 0.1912c0.05271 0.0016 0.0886 0.01005 0.1049 0.02635 0.11107 0.11108 0.19827 2.9103 0.19327 6.2203l-0.0088 6.0182-3.6024 5.0028c-1.9812 2.7515-3.7217 5.0098-3.868 5.0198-0.38679 0.0252-3.7741-4.6509-3.7801-5.2188-0.0091-0.82317 4.6264-14.646 5.0519-15.064 0.49658-0.4883 5.1185-2.0288 5.9092-2.0045zm-11.727 17.726 1.7896 2.4603c0.98433 1.3533 1.7901 2.5895 1.7901 2.7471 0 0.15765-2.6048 1.1114-5.7883 2.1193-3.1834 1.0079-5.9971 1.8202-6.2528 1.805-0.79494-0.0474-11.386-3.718-11.386-3.946 0-0.11863 0.79235-1.3319 1.7611-2.6965l1.7616-2.481 8.1623-0.0041z" fill="#000000" stroke-width=".35228"/>
</svg>
