<svg viewBox="0 0 50 50" xmlns="http://www.w3.org/2000/svg">
 <path d="m25.159 0.95177c-0.32592-0.07049-5.1897 2.5336-10.809 5.7862l-10.216 5.9139v24.517l10.216 5.9314c5.619 3.2622 10.375 5.9394 10.568 5.9495 0.19375 0.01011 4.9499-2.6374 10.569-5.8834l10.216-5.9014 0.081131-12.328 0.081132-12.328-10.057-5.764c-5.5315-3.1701-10.324-5.8216-10.65-5.8921zm-0.58704 1.9684c0.09396 0 0.17053 1.7487 0.17053 3.8861 0 2.7936-0.12374 3.9289-0.44028 4.0375-0.2422 0.08305-4.0128 0.6326-8.3793 1.2216-8.7381 1.1787-9.09 1.2103-8.6005 0.76998 0.4162-0.37436 17.015-9.9152 17.25-9.9152zm1.0516 0.02584 8.2786 4.7744c4.5533 2.6259 8.5166 4.9139 8.8072 5.0844 0.38318 0.22483 0.2377 0.3026-0.52865 0.28267-1.1608-0.03018-16.496-2.0855-16.657-2.2324-0.055-0.0502-0.055-1.8504 0-4.0003zm0.34416 8.848c0.12428-0.12428 16.482 1.9888 17.342 2.2402 0.2779 0.0813-0.60992 2.6463-2.5797 7.4517-1.6519 4.0301-3.2009 7.8009-3.4422 8.3798l-0.43925 1.0526-0.91881-1.5813c-7.141-12.283-10.068-17.437-9.9617-17.543zm-2.0826 0.06976c0.03807 0.0021 0.06141 0.0066 0.06821 0.01344 0.07816 0.07815-1.7196 3.3658-3.9946 7.306-2.275 3.9402-4.7378 8.1852-5.4725 9.4335l-1.3358 2.2696-0.74724-1.741c-3.0382-7.079-5.978-14.737-5.7387-14.949 0.31725-0.28184 16.04-2.3982 17.221-2.3322zm1.2568 0.48679c0.32682 0.34363 10.499 17.931 10.752 18.59 0.17082 0.44515-1.3142 0.51522-10.946 0.51522h-11.143l0.62477-1.1715c2.6667-4.9985 10.516-18.139 10.712-17.933zm-19.287 2.929c0.37219 0.404 6.5782 15.94 6.4823 16.227-0.06133 0.18399-1.5755 1.1946-3.3647 2.2459l-3.253 1.911v-10.266c0-5.6461 0.06099-10.199 0.13539-10.119zm38.327 0.15968c0.16418 0.08318 0.28887 4.2497 0.28887 9.7808 0 7.8631-0.09833 10.107-0.4408 10.093-0.2422-0.0097-1.6293-0.73164-3.0825-1.604-1.4532-0.8724-2.8501-1.709-3.1047-1.8588-0.35504-0.2088 0.29232-2.1135 2.7776-8.1716 1.7825-4.3449 3.378-8.0506 3.5455-8.2346 0.0054-6e-3 0.01072-0.0073 0.01601-0.0047zm-19.075 16.72h10.992l-0.99994 1.3214c-0.55002 0.72659-2.9601 3.8576-5.3557 6.9577-2.3956 3.1001-4.4909 5.6859-4.656 5.7464-0.2675 0.09796-10.564-12.898-10.855-13.701-0.0699-0.19297 4.3312-0.32453 10.874-0.32453zm12.025 0.35243c0.17489 0 1.7363 0.82939 3.4701 1.8428 2.4229 1.4162 3.0518 1.9351 2.7177 2.2428-0.23911 0.22018-3.843 2.3488-8.0088 4.7305-4.1658 2.3816-7.9556 4.5773-8.4217 4.8793-0.46611 0.30198-0.78295 0.38795-0.70435 0.19068 0.30616-0.76836 10.648-13.886 10.947-13.886zm-24.162 0.01963c0.17785 0.01066 1.6707 1.7894 3.3176 3.9532 1.6469 2.1638 4.0097 5.249 5.2503 6.8554 1.2406 1.6064 2.1917 2.9689 2.1136 3.0282-0.13205 0.10025-16.948-9.5799-17.357-9.9916-0.20596-0.20733 6.1626-3.876 6.675-3.8452z" fill="#000000" stroke-width=".35228"/>
</svg>
