<svg viewBox="0 0 50 50" xmlns="http://www.w3.org/2000/svg">
 <path d="m25.033 8.2664c-0.69407 0-19.606 32.522-19.248 33.101 0.15229 0.24641 6.4546 0.36639 19.24 0.36639 15.425 0 19.048-0.08782 19.193-0.46509 0.09816-0.25578-2.38-4.8927-5.5066-10.304-3.1266-5.4116-7.3524-12.733-9.3906-16.269-2.4473-4.2457-3.9034-6.4291-4.2876-6.4291zm-0.56793 3.359 0.09405 9.1297c0.05177 5.0212-0.02703 9.2482-0.1757 9.3932-0.14867 0.14503-3.2032 1.9535-6.7877 4.0189-3.5845 2.0654-7.0613 4.0885-7.7261 4.4958-1.1059 0.67769-1.188 0.68613-0.96222 0.09767 0.13574-0.35375 3.6919-6.6038 7.9024-13.889zm1.1829 0.34158h5.16e-4c0.0063-2e-4 0.01212 0.0031 0.01912 0.0098 0.18326 0.18737 3.7681 6.2857 7.9664 13.552 4.1984 7.2659 7.7069 13.329 7.7964 13.475 0.36547 0.59338-0.74556 0.0053-8.1576-4.3212l-7.7504-4.5243-0.09457-9.2604c-0.05732-5.6424 0.02445-8.9253 0.22014-8.9302zm-0.62425 18.804 7.9034 4.5129c4.3468 2.4819 7.9071 4.6317 7.9111 4.777 0.0045 0.14532-7.1593 0.26407-15.92 0.26407-13.392 0-15.846-0.07559-15.412-0.47542 0.28371-0.26157 3.8909-2.4113 8.0166-4.777z" fill="#000000" stroke-width=".35228"/>
</svg>
