<svg viewBox="0 0 50 50" xmlns="http://www.w3.org/2000/svg">
 <path d="m24.774 2.313c-0.29064 0.01135-4.8088 2.5113-10.04 5.5552l-9.5116 5.5345v23.176l9.5121 5.5351c5.2315 3.0442 9.7182 5.5523 9.9705 5.5733 0.53551 0.04466 19.495-10.804 19.883-11.377 0.14382-0.21257 0.22322-5.432 0.17622-11.599l-0.08578-11.212-9.6878-5.6033c-5.3283-3.0818-9.9258-5.594-10.216-5.5826zm0.08268 1.7172 8.7592 5.026c4.8177 2.7641 8.7619 5.1078 8.7659 5.2085 0.0035 0.10068-3.8344 2.3994-8.5287 5.1082-4.6943 2.7088-8.697 4.959-8.8951 5.0002-0.59387 0.12344-17.759-9.9161-17.471-10.218 0.14625-0.15356 4.1142-2.4943 8.8175-5.2017zm-18.049 10.971 8.0465 4.6483c4.4258 2.5565 8.3935 4.8858 8.817 5.1764 0.76571 0.52547 0.76961 0.58517 0.67231 10.653l-0.09767 10.124-8.7147-5.0157-8.7142-5.0157-0.0052-10.285zm36.108 0.01137 0.09405 10.085c0.07221 7.7816-0.0084 10.178-0.35243 10.494-0.24523 0.22506-4.2134 2.5713-8.8181 5.2142-4.6046 2.6428-8.4491 4.8054-8.5431 4.8054-0.09393 0-0.17053-4.582-0.17053-10.182v-10.181l8.8951-5.1175z" fill="#000000" stroke-width=".35228"/>
</svg>
