<svg viewBox="0 0 50 50" xmlns="http://www.w3.org/2000/svg">
 <path d="m25.162 2.2983c-0.2499-0.0097-4.8048 2.4792-10.122 5.5309l-9.6671 5.5485-0.0067 11.549-0.0062 11.549 1.3069 0.78083c0.71875 0.42942 5.0383 2.9497 9.5994 5.6007 4.5611 2.651 8.4755 4.831 8.6987 4.8441 0.22316 0.01315 4.7413-2.475 10.04-5.5289l9.6345-5.5526v-23.24l-9.5116-5.532c-5.2315-3.0428-9.7164-5.5403-9.9663-5.55zm0.89039 2.4794c0.43222 0.07489 6.0287 3.2358 14.096 7.9639l3.2587 1.91v9.8433c0 5.4139-0.11874 9.8365-0.26406 9.8278-0.30223-0.01804-17.282-29.325-17.116-29.542 0.0031-0.0041 0.01138-5e-3 0.02532-0.0026zm-2.113 0.11214c0.08074 0.08074-3.534 6.5414-8.0326 14.357-4.4986 7.8159-8.3974 14.445-8.6641 14.732-0.41238 0.44348-0.47087-0.97575-0.39119-9.4914l0.09354-10.013 8.4238-4.8659c4.633-2.6762 8.4898-4.7993 8.5705-4.7186zm1.1488 0.21704c0.15727 0.0069 16.915 28.867 17.203 29.626 0.06661 0.1758-7.366 0.31006-17.174 0.31006-9.5103 0-17.291-0.08678-17.291-0.19276 0-0.3294 17.076-29.752 17.262-29.743zm-0.0036 30.684c3.1504 0 6.2996 0.01283 8.6878 0.03876l8.6847 0.09405-8.6961 5.0204c-4.7827 2.761-8.7304 5.0147-8.7726 5.008-0.0422-0.0067-1.5035-0.85218-3.2473-1.879-1.7438-1.0268-5.6176-3.2804-8.6088-5.008l-5.4384-3.1414 8.6971-0.09405c2.3917-0.0259 5.5431-0.03876 8.6935-0.03876z" fill="#000000" stroke-width=".35228"/>
</svg>
